<svg width="24" height="24" viewBox="0 0 24 24" fill="none" xmlns="http://www.w3.org/2000/svg">
<path d="M6.88 12.88C6.58526 13.1546 6.34885 13.4859 6.18488 13.8538C6.02091 14.2218 5.93274 14.6191 5.92564 15.0219C5.91853 15.4247 5.99263 15.8248 6.14351 16.1984C6.2944 16.5719 6.51898 16.9113 6.80385 17.1962C7.08873 17.481 7.42806 17.7056 7.80161 17.8565C8.17517 18.0074 8.57528 18.0815 8.97809 18.0744C9.38091 18.0673 9.77816 17.9791 10.1462 17.8151C10.5142 17.6512 10.8454 17.4147 11.12 17.12C11.6818 16.5575 11.9974 15.795 11.9974 15C11.9974 14.205 11.6818 13.4425 11.12 12.88C10.5477 12.337 9.7889 12.0343 9 12.0343C8.21111 12.0343 7.45228 12.337 6.88 12.88ZM9.71 15.71C9.61704 15.8037 9.50644 15.8781 9.38458 15.9289C9.26272 15.9797 9.13202 16.0058 9 16.0058C8.86799 16.0058 8.73729 15.9797 8.61543 15.9289C8.49357 15.8781 8.38297 15.8037 8.29 15.71C8.19628 15.617 8.12188 15.5064 8.07111 15.3846C8.02034 15.2627 7.99421 15.132 7.99421 15C7.99421 14.868 8.02034 14.7373 8.07111 14.6154C8.12188 14.4936 8.19628 14.383 8.29 14.29C8.38297 14.1963 8.49357 14.1219 8.61543 14.0711C8.73729 14.0203 8.86799 13.9942 9 13.9942C9.13202 13.9942 9.26272 14.0203 9.38458 14.0711C9.50644 14.1219 9.61704 14.1963 9.71 14.29C9.80373 14.383 9.87813 14.4936 9.9289 14.6154C9.97966 14.7373 10.0058 14.868 10.0058 15C10.0058 15.132 9.97966 15.2627 9.9289 15.3846C9.87813 15.5064 9.80373 15.617 9.71 15.71ZM9 8C8.73479 8 8.48043 8.10536 8.2929 8.29289C8.10536 8.48043 8 8.73478 8 9C8 9.26522 8.10536 9.51957 8.2929 9.70711C8.48043 9.89464 8.73479 10 9 10C10.3261 10 11.5979 10.5268 12.5355 11.4645C13.4732 12.4021 14 13.6739 14 15C14 15.2652 14.1054 15.5196 14.2929 15.7071C14.4804 15.8946 14.7348 16 15 16C15.2652 16 15.5196 15.8946 15.7071 15.7071C15.8946 15.5196 16 15.2652 16 15C16 13.1435 15.2625 11.363 13.9498 10.0503C12.637 8.7375 10.8565 8 9 8ZM9 4C8.73479 4 8.48043 4.10536 8.2929 4.29289C8.10536 4.48043 8 4.73478 8 5C8 5.26522 8.10536 5.51957 8.2929 5.70711C8.48043 5.89464 8.73479 6 9 6C11.387 6 13.6761 6.94821 15.364 8.63604C17.0518 10.3239 18 12.6131 18 15C18 15.2652 18.1054 15.5196 18.2929 15.7071C18.4804 15.8946 18.7348 16 19 16C19.2652 16 19.5196 15.8946 19.7071 15.7071C19.8946 15.5196 20 15.2652 20 15C20 12.0826 18.8411 9.28473 16.7782 7.22183C14.7153 5.15893 11.9174 4 9 4Z" fill="#FFFFFF"/>
</svg>
