<svg width="18" height="18" viewBox="0 0 18 18" fill="none" xmlns="http://www.w3.org/2000/svg">
<path d="M10.0575 9L14.7825 4.2825C14.9237 4.14127 15.0031 3.94973 15.0031 3.75C15.0031 3.55028 14.9237 3.35873 14.7825 3.2175C14.6413 3.07627 14.4497 2.99693 14.25 2.99693C14.0503 2.99693 13.8587 3.07627 13.7175 3.2175L9.00002 7.9425L4.28252 3.2175C4.14129 3.07627 3.94974 2.99693 3.75002 2.99693C3.55029 2.99693 3.35874 3.07627 3.21752 3.2175C3.07629 3.35873 2.99695 3.55028 2.99695 3.75C2.99695 3.94973 3.07629 4.14127 3.21752 4.2825L7.94252 9L3.21752 13.7175C3.14722 13.7872 3.09142 13.8702 3.05335 13.9616C3.01527 14.053 2.99567 14.151 2.99567 14.25C2.99567 14.349 3.01527 14.447 3.05335 14.5384C3.09142 14.6298 3.14722 14.7128 3.21752 14.7825C3.28724 14.8528 3.37019 14.9086 3.46158 14.9467C3.55298 14.9847 3.65101 15.0044 3.75002 15.0044C3.84902 15.0044 3.94705 14.9847 4.03845 14.9467C4.12984 14.9086 4.21279 14.8528 4.28252 14.7825L9.00002 10.0575L13.7175 14.7825C13.7872 14.8528 13.8702 14.9086 13.9616 14.9467C14.053 14.9847 14.151 15.0044 14.25 15.0044C14.349 15.0044 14.4471 14.9847 14.5384 14.9467C14.6298 14.9086 14.7128 14.8528 14.7825 14.7825C14.8528 14.7128 14.9086 14.6298 14.9467 14.5384C14.9848 14.447 15.0044 14.349 15.0044 14.25C15.0044 14.151 14.9848 14.053 14.9467 13.9616C14.9086 13.8702 14.8528 13.7872 14.7825 13.7175L10.0575 9Z" fill="black"/>
</svg>
